<?xml version="1.0" encoding="UTF-8" standalone="no"?>
<svg width="440px" height="257px" viewBox="0 0 440 257" version="1.1" xmlns="http://www.w3.org/2000/svg" xmlns:xlink="http://www.w3.org/1999/xlink" xmlns:sketch="http://www.bohemiancoding.com/sketch/ns">
    <!-- Generator: Sketch 3.3.2 (12043) - http://www.bohemiancoding.com/sketch -->
    <title>Desktop</title>
    <desc>Created with Sketch.</desc>
    <defs>
        <ellipse id="path-1" cx="37" cy="47.5" rx="37" ry="47.5"></ellipse>
        <ellipse id="path-3" cx="37" cy="47.5" rx="37" ry="47.5"></ellipse>
        <ellipse id="path-5" cx="38" cy="47.5" rx="37" ry="47.5"></ellipse>
        <ellipse id="path-7" cx="37" cy="47.5" rx="37" ry="47.5"></ellipse>
        <ellipse id="path-9" cx="38" cy="47.5" rx="37" ry="47.5"></ellipse>
    </defs>
    <g id="Page-1" stroke="none" stroke-width="1" fill="none" fill-rule="evenodd" sketch:type="MSPage">
        <g id="Desktop" sketch:type="MSArtboardGroup">
            <g id="Path-2" sketch:type="MSLayerGroup" transform="translate(275.000000, 0.000000)">
                <mask id="mask-2" sketch:name="Mask" fill="white">
                    <use xlink:href="#path-1"></use>
                </mask>
                <use id="Mask" fill="#F97979" sketch:type="MSShapeGroup" xlink:href="#path-1"></use>
                <path d="M24,2.84726986 C24,2.84726986 78.4537815,12.2709048 60.9747899,84.2944003 C43.4957983,156.317896 104,47.9460942 104,47.9460942 L88.5378151,-5.90324829 L36.1008403,-16 L24,2.84726986 Z" fill-opacity="0.300000012" fill="#000000" sketch:type="MSShapeGroup" mask="url(#mask-2)"></path>
            </g>
            <rect id="Rectangle-1" fill="#F97979" sketch:type="MSShapeGroup" x="304" y="93" width="16" height="7" rx="40"></rect>
            <path d="M312,255 C307.90732,226.385333 312.369395,203.364087 313,174 C313.379237,149.358801 311.774413,124.680143 312,100" id="Path-6" stroke="#ADADAD" stroke-width="3" stroke-linecap="round" sketch:type="MSShapeGroup"></path>
            <g id="Path-2" sketch:type="MSLayerGroup" transform="translate(92.000000, 0.000000)">
                <mask id="mask-4" sketch:name="Mask" fill="white">
                    <use xlink:href="#path-3"></use>
                </mask>
                <use id="Mask" fill="#87CF93" sketch:type="MSShapeGroup" xlink:href="#path-3"></use>
                <path d="M24,2.84726986 C24,2.84726986 78.4537815,12.2709048 60.9747899,84.2944003 C43.4957983,156.317896 104,47.9460942 104,47.9460942 L88.5378151,-5.90324829 L36.1008403,-16 L24,2.84726986 Z" fill-opacity="0.300000012" fill="#000000" sketch:type="MSShapeGroup" mask="url(#mask-4)"></path>
            </g>
            <rect id="Rectangle-1" fill="#87CF93" sketch:type="MSShapeGroup" x="121" y="93" width="16" height="7" rx="40"></rect>
            <path d="M130,255 C125.90732,226.385333 130.369395,203.364087 131,174 C131.379237,149.358801 129.774413,124.680143 130,100" id="Path-6" stroke="#ADADAD" stroke-width="3" stroke-linecap="round" sketch:type="MSShapeGroup"></path>
            <g id="Path-2" sketch:type="MSLayerGroup">
                <mask id="mask-6" sketch:name="Mask" fill="white">
                    <use xlink:href="#path-5"></use>
                </mask>
                <use id="Mask" fill="#F9D479" sketch:type="MSShapeGroup" xlink:href="#path-5"></use>
                <path d="M24,2.84726986 C24,2.84726986 78.4537815,12.2709048 60.9747899,84.2944003 C43.4957983,156.317896 104,47.9460942 104,47.9460942 L88.5378151,-5.90324829 L36.1008403,-16 L24,2.84726986 Z" fill-opacity="0.300000012" fill="#000000" sketch:type="MSShapeGroup" mask="url(#mask-6)"></path>
            </g>
            <rect id="Rectangle-1" fill="#F9D479" sketch:type="MSShapeGroup" x="30" y="93" width="16" height="7" rx="40"></rect>
            <path d="M38,255 C33.9073201,226.385333 38.3693952,203.364087 39,174 C39.3792366,149.358801 37.7744125,124.680143 38,100" id="Path-6" stroke="#ADADAD" stroke-width="3" stroke-linecap="round" sketch:type="MSShapeGroup"></path>
            <g id="Path-2" sketch:type="MSLayerGroup" transform="translate(183.000000, 0.000000)">
                <mask id="mask-8" sketch:name="Mask" fill="white">
                    <use xlink:href="#path-7"></use>
                </mask>
                <use id="Mask" fill="#7DAEE0" sketch:type="MSShapeGroup" xlink:href="#path-7"></use>
                <path d="M24,2.84726986 C24,2.84726986 78.4537815,12.2709048 60.9747899,84.2944003 C43.4957983,156.317896 104,47.9460942 104,47.9460942 L88.5378151,-5.90324829 L36.1008403,-16 L24,2.84726986 Z" fill-opacity="0.300000012" fill="#000000" sketch:type="MSShapeGroup" mask="url(#mask-8)"></path>
            </g>
            <rect id="Rectangle-1" fill="#7DAEE0" sketch:type="MSShapeGroup" x="212" y="93" width="16" height="7" rx="40"></rect>
            <path d="M221,255 C216.90732,226.385333 221.369395,203.364087 222,174 C222.379237,149.358801 220.774413,124.680143 221,100" id="Path-6" stroke="#ADADAD" stroke-width="3" stroke-linecap="round" sketch:type="MSShapeGroup"></path>
            <g id="Path-2" sketch:type="MSLayerGroup" transform="translate(365.000000, 0.000000)">
                <mask id="mask-10" sketch:name="Mask" fill="white">
                    <use xlink:href="#path-9"></use>
                </mask>
                <use id="Mask" fill="#F9B479" sketch:type="MSShapeGroup" xlink:href="#path-9"></use>
                <path d="M25,2.84726986 C25,2.84726986 79.4537815,12.2709048 61.9747899,84.2944003 C44.4957983,156.317896 105,47.9460942 105,47.9460942 L89.5378151,-5.90324829 L37.1008403,-16 L25,2.84726986 Z" fill-opacity="0.300000012" fill="#000000" sketch:type="MSShapeGroup" mask="url(#mask-10)"></path>
            </g>
            <rect id="Rectangle-1" fill="#F9B479" sketch:type="MSShapeGroup" x="395" y="93" width="16" height="7" rx="40"></rect>
            <path d="M404,255 C399.90732,226.385333 404.369395,203.364087 405,174 C405.379237,149.358801 403.774413,124.680143 404,100" id="Path-6" stroke="#ADADAD" stroke-width="3" stroke-linecap="round" sketch:type="MSShapeGroup"></path>
        </g>
    </g>
</svg>