<?xml version="1.0" encoding="UTF-8"?>
<svg width="132px" height="132px" viewBox="0 0 132 132" version="1.1" xmlns="http://www.w3.org/2000/svg" xmlns:xlink="http://www.w3.org/1999/xlink">
    <!-- Generator: Sketch 42 (36781) - http://www.bohemiancoding.com/sketch -->
    <title>designers</title>
    <desc>Created with Sketch.</desc>
    <defs>
        <ellipse id="path-1" cx="66" cy="66" rx="66" ry="66"></ellipse>
        <polygon id="path-3" points="1.93074723e-15 115.343 1.93074723e-15 0.575 99.8780332 0.575 99.8780332 115.343 0 115.343"></polygon>
        <polygon id="path-5" points="0.815526993 0.221 54.3320731 0.221 54.3320731 33.4993 0.815526993 33.4993 0.815526993 0.221"></polygon>
    </defs>
    <g id="Page-4" stroke="none" stroke-width="1" fill="none" fill-rule="evenodd">
        <g id="Home" transform="translate(-297.000000, -1537.000000)">
            <g id="Group-2" transform="translate(213.000000, 1537.000000)">
                <g id="designers" transform="translate(84.000000, 0.000000)">
                    <mask id="mask-2" fill="white">
                        <use xlink:href="#path-1"></use>
                    </mask>
                    <use id="Background" fill="#D9E8FA" xlink:href="#path-1"></use>
                    <g id="Illustration" mask="url(#mask-2)">
                        <g transform="translate(16.000000, 16.000000)">
                            <polygon id="Fill-1" fill="#FFCEAA" points="30.9209 81.6569 44.5209 76.7099 44.4869 66.9969 57.6549 66.8869 57.6079 77.1259 71.1089 83.1059 51.4269 101.5219"></polygon>
                            <g id="Group-57" stroke-width="1" fill="none" transform="translate(0.000000, 0.779000)">
                                <path d="M57.6377,69.8115 C52.5737,70.5895 47.9797,71.6465 44.5087,72.5675 L44.4917,67.5285 L57.6497,67.1885 L57.6377,69.8115 Z" id="Fill-2" fill="#D3A17C"></path>
                                <path d="M68.167,86.6445 C55.163,96.1615 43.208,94.6505 31.872,86.6445 L31.872,178.3205 L68.167,178.3205 L68.167,86.6445 Z" id="Fill-4" fill="#FFFFFF"></path>
                                <g id="Group-8" transform="translate(0.000000, 72.000000)">
                                    <mask id="mask-4" fill="white">
                                        <use xlink:href="#path-3"></use>
                                    </mask>
                                    <g id="Clip-7"></g>
                                    <path d="M25.4951,42.918 C13.4421,64.822 6.8491,84.513 22.4581,106.951 L12.9171,113.996 C1.9111,99.901 -0.6909,83.36 0.1431,68.061 C0.9521,53.239 6.3781,34.573 14.7311,22.086 C21.2681,12.312 25.4271,7.885 42.9231,3.605 L42.9341,0.912 C44.6411,1.055 46.4151,1.144 48.2391,1.171 L48.2391,111.302 C40.2061,111.055 33.6161,111.289 23.5871,109.915 C22.0381,80.191 23.4721,63.696 25.4951,42.918 M87.4741,22.081 C81.5201,13.475 75.1381,8.75 59.5181,4.203 L59.5361,0.575 C57.9581,0.795 56.5321,0.888 54.8091,1.004 L54.8091,111.311 C61.5591,111.306 68.5991,110.992 76.9771,110.457 L83.0831,115.343 C95.8581,101.212 100.3641,84.779 99.8371,68.457 C99.4131,55.337 94.6941,32.524 87.4741,22.081 M77.8211,101.356 C78.6101,73.647 76.8621,59.041 75.3861,43.397 C84.0161,62.598 89.6431,81.875 77.8211,101.356" id="Fill-6" fill="#4976A6" mask="url(#mask-4)"></path>
                                </g>
                                <path d="M27.8701,51.4365 C24.9011,51.1885 22.3621,47.7065 22.1511,44.0095 C21.9851,41.0915 22.7491,36.7585 26.4381,36.8305 C26.8081,18.0875 39.5181,18.9105 51.4581,19.0985 C63.1081,19.2825 75.2331,18.3715 75.5911,36.6915 C79.1141,37.6785 80.0731,40.5405 79.8761,44.0095 C79.6651,47.7105 77.1221,51.1935 74.1491,51.4365 C73.9891,52.1605 73.8091,52.8505 73.6141,53.5135 C70.0221,68.1975 57.2021,68.7335 50.9231,68.7335 C44.6411,68.7335 32.0071,68.1915 28.4011,53.4975 C28.2081,52.8385 28.0301,52.1535 27.8701,51.4365" id="Fill-24" fill="#FFCEAA"></path>
                                <path d="M53.7803,53.5703 C53.9093,53.7573 53.9813,53.9613 53.9813,54.1743 C53.9813,55.0983 52.6513,55.8473 51.0143,55.8473 C49.3763,55.8473 48.0463,55.0983 48.0463,54.1743 C48.0463,53.9613 48.1183,53.7573 48.2473,53.5703 C48.3683,54.3723 49.5613,55.0013 51.0143,55.0013 C52.4683,55.0013 53.6593,54.3723 53.7803,53.5703" id="Fill-26" fill="#D3A17C"></path>
                                <path d="M59.9326,42.8506 C58.4206,42.8506 57.1946,43.9076 57.1946,45.2106 C57.1946,46.5156 58.4206,47.5716 59.9326,47.5716 C61.4466,47.5716 62.6706,46.5156 62.6706,45.2106 C62.6706,43.9076 61.4466,42.8506 59.9326,42.8506" id="Fill-28" fill="#FFFFFF"></path>
                                <path d="M59.6963,43.3711 C58.5053,43.2381 57.3953,43.9621 57.2193,44.9891 C57.0443,46.0161 57.8683,46.9571 59.0593,47.0901 C60.2513,47.2241 61.3583,46.4991 61.5343,45.4731 C61.5553,45.3451 61.5633,45.2181 61.5553,45.0951 L59.5853,45.1191 L60.9363,43.8961 C60.6143,43.6181 60.1863,43.4261 59.6963,43.3711" id="Fill-30" fill="#000000"></path>
                                <path d="M64.8389,36.7451 C63.0659,34.8631 59.6959,34.3811 57.5149,35.2901 C54.0479,36.7361 55.6239,38.1631 58.4129,37.0981 C60.0439,36.4741 62.3019,36.4521 64.4249,37.5231 C65.4969,38.0641 65.7709,37.7341 64.8389,36.7451" id="Fill-32" fill="#592510"></path>
                                <path d="M37.1924,36.7451 C38.9654,34.8631 42.3334,34.3811 44.5144,35.2901 C47.9834,36.7361 46.4074,38.1631 43.6184,37.0981 C41.9854,36.4741 39.7294,36.4521 37.6064,37.5231 C36.5344,38.0641 36.2604,37.7341 37.1924,36.7451" id="Fill-34" fill="#592510"></path>
                                <path d="M42.0205,42.8506 C40.5065,42.8506 39.2805,43.9076 39.2805,45.2106 C39.2805,46.5156 40.5065,47.5716 42.0205,47.5716 C43.5325,47.5716 44.7585,46.5156 44.7585,45.2106 C44.7585,43.9076 43.5325,42.8506 42.0205,42.8506" id="Fill-36" fill="#FFFFFF"></path>
                                <path d="M41.7822,43.3711 C40.5912,43.2381 39.4832,43.9621 39.3072,44.9891 C39.1322,46.0161 39.9542,46.9571 41.1452,47.0901 C42.3372,47.2241 43.4462,46.4991 43.6222,45.4731 C43.6432,45.3451 43.6492,45.2181 43.6412,45.0951 L41.6712,45.1191 L43.0222,43.8961 C42.7022,43.6181 42.2742,43.4261 41.7822,43.3711" id="Fill-38" fill="#000000"></path>
                                <path d="M51.1826,25.0615 C55.6616,25.0615 63.4226,22.6105 67.3306,25.0205 C71.6596,27.6905 72.5006,41.1415 71.4966,45.4565 L73.9466,45.2995 C80.1926,21.1005 80.3196,8.9695 51.1826,8.9695 C22.0436,8.9695 22.1726,21.0995 28.4166,45.2995 L30.8686,45.4565 C29.8646,41.1415 30.7036,27.6905 35.0346,25.0205 C38.9426,22.6105 46.7026,25.0615 51.1826,25.0615" id="Fill-40" fill="#592510"></path>
                                <g id="Group-44" transform="translate(24.000000, 0.000000)">
                                    <mask id="mask-6" fill="white">
                                        <use xlink:href="#path-5"></use>
                                    </mask>
                                    <g id="Clip-43"></g>
                                    <path d="M1.7686,33.3643 C2.2826,20.6663 7.9146,16.2743 26.8216,16.4903 C41.8296,16.6623 50.6436,18.9233 52.5736,33.4993 C58.6316,18.9543 46.6766,15.8673 51.7956,11.4273 C55.4716,8.2393 54.8876,2.9863 47.2976,1.5153 C36.8816,-0.5037 22.6646,-0.4977 14.3736,3.9753 C3.0756,10.0713 -1.2994,21.2503 1.7686,33.3643" id="Fill-42" fill="#4976A6" mask="url(#mask-6)"></path>
                                </g>
                                <path d="M76.2705,18.1597 C68.6555,11.9977 60.2605,10.2797 47.1555,12.0377 C53.0125,9.3607 65.2475,8.8537 76.6865,10.5157 C76.4265,10.8337 76.1275,11.1387 75.7955,11.4277 C73.3795,13.5237 74.7685,15.3187 76.2705,18.1597" id="Fill-45" fill="#1D4A7A"></path>
                                <path d="M60.0303,55.7559 C59.8413,58.9159 57.6283,62.1159 54.4253,63.1519 C51.2623,64.1739 45.6283,63.1229 42.0013,59.4099 C49.7903,60.9459 56.6433,58.7489 60.0303,55.7559" id="Fill-47" fill="#650909"></path>
                                <path d="M58.1846,57.0977 C57.2006,58.8187 55.6256,60.2357 53.6886,60.8617 C51.5126,61.5647 48.1666,61.2867 45.1106,59.8357 C50.4056,60.2447 55.0636,58.9867 58.1846,57.0977" id="Fill-49" fill="#FFFFFF"></path>
                                <path d="M56.79,18.4907 C57.063,25.1827 59.716,31.6987 68.927,30.4987 C63.515,36.0747 49.944,33.5087 43.798,27.6007 C40.692,24.6167 38.895,21.7217 38.294,19.1177 C41.544,18.4917 45.667,18.2387 50.823,18.2907 C52.927,18.3127 54.915,18.3707 56.79,18.4907" id="Fill-51" fill="#592510"></path>
                                <path d="M60.3857,39.6611 C64.0907,39.6611 67.0987,42.0171 67.0987,44.9181 C67.0987,47.8201 64.0907,50.1761 60.3857,50.1761 C56.6787,50.1761 53.6707,47.8201 53.6707,44.9181 C53.6707,42.0171 56.6787,39.6611 60.3857,39.6611 M41.5187,39.6611 C45.2257,39.6611 48.2337,42.0171 48.2337,44.9181 C48.2337,47.8201 45.2257,50.1761 41.5187,50.1761 C37.8117,50.1761 34.8037,47.8201 34.8037,44.9181 C34.8037,42.0171 37.8117,39.6611 41.5187,39.6611 M41.5187,38.5041 C45.9067,38.5041 49.4897,41.2061 49.6997,44.6041 L52.3307,44.6041 C52.5417,41.2061 56.1237,38.5041 60.5127,38.5041 C65.0337,38.5041 68.7017,41.3761 68.7017,44.9181 C68.7017,48.4601 65.0337,51.3331 60.5127,51.3331 C56.2157,51.3331 52.6887,48.7401 52.3467,45.4431 L49.6827,45.4431 C49.3427,48.7401 45.8137,51.3331 41.5187,51.3331 C36.9967,51.3331 33.3287,48.4601 33.3287,44.9181 C33.3287,41.3761 36.9967,38.5041 41.5187,38.5041" id="Fill-53" fill="#1D4A7A"></path>
                                <path d="M47.7627,110.8389 C47.3407,104.7469 48.4017,99.1129 51.8757,93.6769 C53.8267,90.6239 56.2787,87.9709 58.7277,85.3839 C61.3327,82.6349 63.9447,79.9369 66.2567,76.8879 C72.3957,68.7919 74.5107,59.6829 74.6517,49.3309 C74.2527,48.8649 74.0697,47.9299 74.2237,46.8989 C74.4347,45.4979 75.1927,44.4499 75.9147,44.5589 C76.6397,44.6669 77.0557,45.8919 76.8447,47.2929 C76.6887,48.3379 76.2277,49.1869 75.7017,49.5049 C75.5397,60.0479 73.3307,69.3499 67.0737,77.6049 C64.7357,80.6879 62.1007,83.4129 59.4657,86.1929 C57.0697,88.7259 54.6557,91.3309 52.7447,94.3189 C49.3857,99.5729 48.2897,104.9539 48.6907,110.7969 C48.8897,113.7019 49.0557,114.5109 49.9187,117.3409 C52.0907,124.4649 53.6127,131.7459 53.5497,138.8719 C53.4037,155.4889 45.9757,170.1139 34.8117,180.6579 L34.0147,179.8889 C45.0047,169.5569 52.3527,155.1919 52.4947,138.8619 C52.6197,124.5649 46.1987,109.4749 41.1377,96.4929 C34.9777,80.6929 27.6557,66.5639 26.3117,49.4949 C25.7937,49.1679 25.3407,48.3259 25.1867,47.2929 C24.9757,45.8919 25.3917,44.6679 26.1167,44.5589 C26.8387,44.4499 27.5967,45.4979 27.8077,46.8989 C27.9637,47.9479 27.7707,48.8989 27.3587,49.3549 C28.6807,66.3159 35.9917,80.3629 42.1107,96.0559 C43.9487,100.7699 45.9517,105.7369 47.7627,110.8389" id="Fill-55" fill="#000000"></path>
                            </g>
                        </g>
                    </g>
                </g>
            </g>
        </g>
    </g>
</svg>