<svg width="64" height="64" viewBox="0 0 64 64" class="alert__icon">
  <g fill="none">
    <circle cx="32" cy="32" r="32" fill="#FFF"/>
    <path fill="#FFCB76" d="M48.8963901,28.0704408 C48.6454399,27.3135011 47.9792075,26.7611183 47.1794048,26.6457069 L38.010007,25.3363844 L33.9081849,17.167645 C33.5487594,16.4520943 32.81048,16 32.0001536,16 C31.1898272,16 30.4515478,16.4520943 30.0921223,17.167645 L25.9927288,25.3363844 L16.821712,26.6457069 C16.0194808,26.7611183 15.3540579,27.3127052 15.1047267,28.0704408 C14.8537765,28.8273804 15.0618223,29.6583425 15.6430554,30.214705 L22.2786653,36.5742712 L20.7130597,45.5548702 C20.5770609,46.3396677 20.9049152,47.1324246 21.5598144,47.6004378 C21.9281445,47.866282 22.3660932,48 22.8088989,48 C23.147277,48 23.4872741,47.9204059 23.7981285,47.7596259 L32.0001536,43.5196498 L40.2021787,47.7596259 C40.5130332,47.9204059 40.8530303,48 41.1914084,48 C41.6317856,48 42.0721627,47.866282 42.442112,47.6004378 C43.0970111,47.1316287 43.4248655,46.3388718 43.2888666,45.5548702 L41.7224514,36.5734753 L48.3580614,30.2139091 C48.9368659,29.6599343 49.1457213,28.8273804 48.8963901,28.0704408 Z"/>
  </g>
</svg>
