<?xml version="1.0" encoding="UTF-8"?>
<svg width="40px" height="24px" viewBox="0 0 40 24" version="1.1" xmlns="http://www.w3.org/2000/svg" xmlns:xlink="http://www.w3.org/1999/xlink">
    <!-- Generator: Sketch 42 (36781) - http://www.bohemiancoding.com/sketch -->
    <title>Leaf</title>
    <desc>Created with Sketch.</desc>
    <defs></defs>
    <g id="Page-4" stroke="none" stroke-width="1" fill="none" fill-rule="evenodd">
        <g id="Home" transform="translate(-801.000000, -3805.000000)" fill="#DFDFEE">
            <g id="Group-20" transform="translate(740.000000, 3805.000000)">
                <path d="M66.4647163,19.093628 C70.5919319,18.9499889 78.5080972,19.6983056 78.5235573,22.3363681 C78.5269585,22.9170717 78.2373401,23.3199169 77.7278799,23.5704145 C76.9519914,22.7211816 75.3836206,22.1495963 72.9830867,22.0098504 C70.1422505,21.8443887 66.2626019,22.4789827 64.295774,22.490355 C62.4492253,22.5010101 61.0487507,21.7851709 61,19.7021988 C61.7542444,19.538274 62.7565712,19.3635917 63.406821,19.2573479 C63.5033948,16.6886461 64.440274,12.8864102 65.3990033,10.151837 C66.0223527,8.37417486 67.3846925,5.25786177 68.2914761,3.18533991 C68.7745512,2.08110141 69.2095971,0.840600406 68.8457705,0.0197469208 C70.8356854,-0.159238481 71.9294326,0.89797409 71.9294326,2.40085724 C71.9294326,4.29910654 69.6483534,8.29118792 68.5015267,11.1926571 C67.3276964,14.162155 66.4733739,17.607752 66.4647163,19.093628 Z M91.0857775,13.6103431 C91.0857775,13.6103431 90.3417367,12.9301576 90.1092175,12.6741275 C89.9601826,12.5099978 89.85155,12.1657557 90.269796,11.9660748 C90.5608572,11.8271485 91.1332914,11.6238818 91.9018622,11.4599569 C93.419524,7.61827658 95.431186,3.12601962 97.9299428,3.12601962 C99.1730341,3.12601962 101,4.25300268 101,5.54216886 C101,6.82283144 100.184534,8.83142262 98.7348962,8.83142262 C98.2397622,8.83142262 97.768849,8.63932324 97.5176747,8.35757747 C98.3471581,7.62544829 98.9606129,5.81541103 98.9606129,5.25191949 C98.9606129,5.0136138 98.9305174,4.73115086 98.7036669,4.73115086 C97.8981981,4.73115086 95.8896281,8.33104214 94.7296088,11.2369168 C96.8977266,11.2648864 99.542014,11.7154747 99.542014,13.1146755 C99.542014,13.5928236 99.300631,13.9177021 98.888363,14.223217 C98.5105193,13.5937457 96.7720879,13.2789076 95.2690616,13.226759 C94.8340157,13.2116984 94.3784595,13.2214315 94.0064906,13.2626176 C93.1529927,15.7631881 92.0500725,19.3025297 91.735512,20.9528427 C91.5097952,22.1375068 91.587817,22.5749811 92.1195397,22.9634829 C91.7845719,23.475748 90.9866271,24 90.1622971,24 C89.2515969,24 88.7698617,23.2196155 88.7698617,22.4768312 C88.7698617,21.2572306 89.2877734,19.1677015 89.9216356,17.0971263 C89.0649425,17.7602021 88.032211,18.340291 87.0631749,18.340291 C85.7197994,18.340291 85.088514,17.1833917 85.1005728,15.8686123 C84.4950541,16.9955953 83.2977245,18.340291 82.0472124,18.340291 C80.7725826,18.340291 80.0567822,17.3818432 79.9033154,15.5547987 C78.633839,16.8438624 76.3321463,18.340291 74.1935057,18.340291 C72.0033316,18.340291 70.5500867,16.9827887 70.5500867,14.165331 C70.5500867,11.1685806 72.9607212,6.17399655 76.2599994,6.17399655 C77.5006171,6.17399655 79.9807187,7.12168686 79.9807187,8.83777471 C79.9807187,11.2198071 78.3964756,13.5045091 75.636547,13.5045091 C74.9621796,13.5045091 74.2460699,13.3345396 73.7399078,13.1885441 C73.6672456,13.5462075 73.6267402,13.8852245 73.6267402,14.1909443 C73.6267402,15.4203804 74.1891769,16.5063822 75.4517479,16.5063822 C76.8388238,16.5063822 78.9817932,15.2623978 79.9699998,13.8576647 C80.4277204,10.6615407 82.6490207,6.31743076 85.6036429,6.31743076 C86.6514222,6.31743076 87.4839976,7.0448471 88.015308,8.02829351 C88.9429112,7.75515379 89.7499259,7.51438923 90.1379732,7.51438923 C90.4042984,7.51438923 90.6529991,7.7265694 90.4592331,8.15011013 C89.7840411,9.62543342 87.8833822,14.0372648 87.8833822,15.4972201 C87.8833822,16.150358 88.1418743,16.5243115 88.647418,16.5243115 C89.0713327,16.5243115 89.7471431,16.1504605 90.4093487,15.5697568 C90.6331072,14.8953087 90.8700583,14.2103079 91.0857775,13.6103431 Z M85.4613074,13.0637563 C86.337377,11.0659227 86.7367617,9.81281997 87.1319206,8.82240676 C86.9515533,8.46382124 86.6208113,8.18853001 86.2600767,8.18853001 C84.7338603,8.18853001 82.6828267,13.0639612 82.6828267,15.1130213 C82.6828267,15.6850165 82.7858937,16.2571141 83.2669075,16.2571141 C83.8380018,16.2571141 84.5852377,15.0615899 85.4613074,13.0637563 Z M77.1120545,7.70228804 C76.2242352,7.70228804 74.7378027,10.0008212 74.0278771,12.1292824 C74.2242197,12.1663704 74.4275709,12.1931107 74.6144314,12.1931107 C76.2406228,12.1931107 77.5586438,9.77009707 77.5586438,8.40234943 C77.5586438,7.97542776 77.4212555,7.70228804 77.1120545,7.70228804 Z" id="Leaf"></path>
            </g>
        </g>
    </g>
</svg>