<svg width="16" height="16" viewBox="0 0 16 16">
  <g fill="none">
    <circle cx="8" cy="8" r="8" fill="#C93636"/>
    <path fill="#FFF" d="M12,11 L9,8 L12,5 C12,5.07230034 12,5.0066493 12,5 L11,4 C10.9836066,3.98905816 10.9180328,3.98905816 11,4 L8,7 L5,4 C5.08196721,4 5.01639344,4 5,4 L4,5 C4,5.01759114 4,5.08324219 4,5 L7,8 L4,11 C3.98907104,10.9261849 3.98907104,10.9918359 4,11 L5,12 C5.00546448,12.0094271 5.08196721,12.0094271 5,12 L8,9 L11,12 C10.9180328,12.0094271 10.9945355,12.0094271 11,12 L12,11 C12.010929,11.0027778 12.010929,10.9371267 12,11 Z"/>
  </g>
</svg>
