<?xml version="1.0" standalone="no"?>
<!DOCTYPE svg PUBLIC "-//W3C//DTD SVG 20010904//EN"
 "http://www.w3.org/TR/2001/REC-SVG-20010904/DTD/svg10.dtd">
<svg version="1.0" xmlns="http://www.w3.org/2000/svg"
 width="16.000000pt" height="16.000000pt" viewBox="0 0 16.000000 16.000000"
 preserveAspectRatio="xMidYMid meet">
<metadata>
Created by potrace 1.11, written by Peter Selinger 2001-2013
</metadata>
<g transform="translate(0.000000,16.000000) scale(0.006154,-0.006154)"
fill="#000000" stroke="none">
<path d="M243 2327 c-44 -16 -106 -65 -130 -102 -30 -45 -41 -91 -47 -185 -11
-164 -15 -236 -21 -330 -3 -52 -7 -122 -10 -155 -4 -62 -16 -275 -20 -355 -4
-84 37 -161 109 -208 l41 -27 353 -3 352 -3 1 -37 c0 -20 2 -53 4 -72 1 -19 5
-75 9 -125 19 -265 20 -273 43 -320 22 -43 72 -93 118 -118 40 -22 45 -22 698
-25 l659 -3 53 25 c84 38 137 130 130 226 -2 19 -6 91 -10 160 -4 69 -9 148
-11 175 -2 28 -6 97 -9 155 -19 352 -25 423 -37 460 -15 47 -56 103 -95 130
-67 46 -91 49 -400 50 l-292 0 4 58 c13 193 16 234 22 302 10 125 6 166 -17
214 -24 50 -76 97 -129 115 -49 16 -1322 14 -1368 -2z"/>
</g>
</svg>
