<?xml version="1.0" encoding="UTF-8" standalone="no"?>
<svg width="432px" height="257px" viewBox="0 0 432 257" version="1.1" xmlns="http://www.w3.org/2000/svg" xmlns:xlink="http://www.w3.org/1999/xlink" xmlns:sketch="http://www.bohemiancoding.com/sketch/ns">
    <!-- Generator: Sketch 3.3.2 (12043) - http://www.bohemiancoding.com/sketch -->
    <title>Desktop</title>
    <desc>Created with Sketch.</desc>
    <defs>
        <ellipse id="path-1" cx="37" cy="47.5" rx="37" ry="47.5"></ellipse>
        <ellipse id="path-3" cx="37" cy="47.5" rx="37" ry="47.5"></ellipse>
        <ellipse id="path-5" cx="37" cy="47.5" rx="37" ry="47.5"></ellipse>
        <ellipse id="path-7" cx="37" cy="47.5" rx="37" ry="47.5"></ellipse>
        <ellipse id="path-9" cx="37" cy="47.5" rx="37" ry="47.5"></ellipse>
    </defs>
    <g id="Page-1" stroke="none" stroke-width="1" fill="none" fill-rule="evenodd" sketch:type="MSPage">
        <g id="Desktop" sketch:type="MSArtboardGroup">
            <path d="M40,255 C35.9073201,226.385333 40.3693952,203.364087 41,174 C41.3792366,149.358801 39.7744125,124.680143 40,100" id="Path-6" stroke="#697593" stroke-width="3" stroke-linecap="round" sketch:type="MSShapeGroup"></path>
            <g id="Path-2" sketch:type="MSLayerGroup" transform="translate(3.000000, 3.000000)">
                <mask id="mask-2" sketch:name="Mask" fill="white">
                    <use xlink:href="#path-1"></use>
                </mask>
                <use id="Mask" stroke="#697593" stroke-width="3" fill="#F9D479" sketch:type="MSShapeGroup" xlink:href="#path-1"></use>
                <path d="M23,2.84726986 C23,2.84726986 77.4537815,12.2709048 59.9747899,84.2944003 C42.4957983,156.317896 103,47.9460942 103,47.9460942 L87.5378151,-5.90324829 L35.1008403,-16 L23,2.84726986 Z" fill-opacity="0.400000006" fill="#000000" sketch:type="MSShapeGroup" mask="url(#mask-2)"></path>
            </g>
            <rect id="Rectangle-1" stroke="#697593" stroke-width="3" fill="#F9D479" sketch:type="MSShapeGroup" x="32" y="100" width="16" height="7" rx="40"></rect>
            <path d="M128,255 C123.90732,226.385333 128.369395,203.364087 129,174 C129.379237,149.358801 127.774413,124.680143 128,100" id="Path-6" stroke="#697593" stroke-width="3" stroke-linecap="round" sketch:type="MSShapeGroup"></path>
            <g id="Path-2" sketch:type="MSLayerGroup" transform="translate(91.000000, 3.000000)">
                <mask id="mask-4" sketch:name="Mask" fill="white">
                    <use xlink:href="#path-3"></use>
                </mask>
                <use id="Mask" stroke="#697593" stroke-width="3" fill="#87CF93" sketch:type="MSShapeGroup" xlink:href="#path-3"></use>
                <path d="M23,2.84726986 C23,2.84726986 77.4537815,12.2709048 59.9747899,84.2944003 C42.4957983,156.317896 103,47.9460942 103,47.9460942 L87.5378151,-5.90324829 L35.1008403,-16 L23,2.84726986 Z" fill-opacity="0.400000006" fill="#000000" sketch:type="MSShapeGroup" mask="url(#mask-4)"></path>
            </g>
            <rect id="Rectangle-1" stroke="#697593" stroke-width="3" fill="#87CF93" sketch:type="MSShapeGroup" x="120" y="100" width="16" height="7" rx="40"></rect>
            <path d="M216,255 C211.90732,226.385333 216.369395,203.364087 217,174 C217.379237,149.358801 215.774413,124.680143 216,100" id="Path-6" stroke="#697593" stroke-width="3" stroke-linecap="round" sketch:type="MSShapeGroup"></path>
            <g id="Path-2" sketch:type="MSLayerGroup" transform="translate(179.000000, 3.000000)">
                <mask id="mask-6" sketch:name="Mask" fill="white">
                    <use xlink:href="#path-5"></use>
                </mask>
                <use id="Mask" stroke="#697593" stroke-width="3" fill="#7DAEE0" sketch:type="MSShapeGroup" xlink:href="#path-5"></use>
                <path d="M23,2.84726986 C23,2.84726986 77.4537815,12.2709048 59.9747899,84.2944003 C42.4957983,156.317896 103,47.9460942 103,47.9460942 L87.5378151,-5.90324829 L35.1008403,-16 L23,2.84726986 Z" fill-opacity="0.400000006" fill="#000000" sketch:type="MSShapeGroup" mask="url(#mask-6)"></path>
            </g>
            <rect id="Rectangle-1" stroke="#697593" stroke-width="3" fill="#7DAEE0" sketch:type="MSShapeGroup" x="208" y="100" width="16" height="7" rx="40"></rect>
            <path d="M304,255 C299.90732,226.385333 304.369395,203.364087 305,174 C305.379237,149.358801 303.774413,124.680143 304,100" id="Path-6" stroke="#697593" stroke-width="3" stroke-linecap="round" sketch:type="MSShapeGroup"></path>
            <g id="Path-2" sketch:type="MSLayerGroup" transform="translate(267.000000, 3.000000)">
                <mask id="mask-8" sketch:name="Mask" fill="white">
                    <use xlink:href="#path-7"></use>
                </mask>
                <use id="Mask" stroke="#697593" stroke-width="3" fill="#F97979" sketch:type="MSShapeGroup" xlink:href="#path-7"></use>
                <path d="M23,2.84726986 C23,2.84726986 77.4537815,12.2709048 59.9747899,84.2944003 C42.4957983,156.317896 103,47.9460942 103,47.9460942 L87.5378151,-5.90324829 L35.1008403,-16 L23,2.84726986 Z" fill-opacity="0.400000006" fill="#000000" sketch:type="MSShapeGroup" mask="url(#mask-8)"></path>
            </g>
            <rect id="Rectangle-1" stroke="#697593" stroke-width="3" fill="#F97979" sketch:type="MSShapeGroup" x="296" y="100" width="16" height="7" rx="40"></rect>
            <path d="M392,255 C387.90732,226.385333 392.369395,203.364087 393,174 C393.379237,149.358801 391.774413,124.680143 392,100" id="Path-6" stroke="#697593" stroke-width="3" stroke-linecap="round" sketch:type="MSShapeGroup"></path>
            <g id="Path-2" sketch:type="MSLayerGroup" transform="translate(355.000000, 3.000000)">
                <mask id="mask-10" sketch:name="Mask" fill="white">
                    <use xlink:href="#path-9"></use>
                </mask>
                <use id="Mask" stroke="#697593" stroke-width="3" fill="#F9B479" sketch:type="MSShapeGroup" xlink:href="#path-9"></use>
                <path d="M23,2.84726986 C23,2.84726986 77.4537815,12.2709048 59.9747899,84.2944003 C42.4957983,156.317896 103,47.9460942 103,47.9460942 L87.5378151,-5.90324829 L35.1008403,-16 L23,2.84726986 Z" fill-opacity="0.400000006" fill="#000000" sketch:type="MSShapeGroup" mask="url(#mask-10)"></path>
            </g>
            <rect id="Rectangle-1" stroke="#697593" stroke-width="3" fill="#F9B479" sketch:type="MSShapeGroup" x="384" y="100" width="16" height="7" rx="40"></rect>
        </g>
    </g>
</svg>