<?xml version="1.0" encoding="UTF-8" standalone="no"?>
<svg width="760px" height="8px" viewBox="0 0 760 8" version="1.1" xmlns="http://www.w3.org/2000/svg" xmlns:xlink="http://www.w3.org/1999/xlink" xmlns:sketch="http://www.bohemiancoding.com/sketch/ns">
    <!-- Generator: Sketch 3.3.2 (12043) - http://www.bohemiancoding.com/sketch -->
    <title>Dashes</title>
    <desc>Created with Sketch.</desc>
    <defs></defs>
    <g id="Page-1" stroke="none" stroke-width="1" fill="none" fill-rule="evenodd" sketch:type="MSPage">
        <g id="Desktop" sketch:type="MSArtboardGroup" transform="translate(-340.000000, -166.000000)">
            <g id="Header" sketch:type="MSLayerGroup">
                <g id="Envalope" transform="translate(340.000000, 166.000000)" sketch:type="MSShapeGroup">
                    <g id="Dashes" transform="translate(-10.000000, -2.000000)">
                        <path d="M734,0 L784,0 L770,10 L720,10 L734,0 Z" id="Dash" fill="#FF6565"></path>
                        <path d="M662,0 L712,0 L698,10 L648,10 L662,0 Z" id="Dash" fill="#629DEA"></path>
                        <path d="M590,0 L640,0 L626,10 L576,10 L590,0 Z" id="Dash" fill="#FF6565"></path>
                        <path d="M518,0 L568,0 L554,10 L504,10 L518,0 Z" id="Dash" fill="#629DEA"></path>
                        <path d="M446,0 L496,0 L482,10 L432,10 L446,0 Z" id="Dash" fill="#FF6565"></path>
                        <path d="M374,0 L424,0 L410,10 L360,10 L374,0 Z" id="Dash" fill="#629DEA"></path>
                        <path d="M302,0 L352,0 L338,10 L288,10 L302,0 Z" id="Dash" fill="#FF6565"></path>
                        <path d="M230,0 L280,0 L266,10 L216,10 L230,0 Z" id="Dash" fill="#629DEA"></path>
                        <path d="M158,0 L208,0 L194,10 L144,10 L158,0 Z" id="Dash" fill="#FF6565"></path>
                        <path d="M86,0 L136,0 L122,10 L72,10 L86,0 Z" id="Dash" fill="#629DEA"></path>
                        <path d="M14,0 L64,0 L50,10 L0,10 L14,0 Z" id="Dash" fill="#FF6565"></path>
                    </g>
                </g>
            </g>
        </g>
    </g>
</svg>