<?xml version="1.0" encoding="UTF-8"?>
<svg width="132px" height="132px" viewBox="0 0 132 132" version="1.1" xmlns="http://www.w3.org/2000/svg" xmlns:xlink="http://www.w3.org/1999/xlink">
    <!-- Generator: Sketch 42 (36781) - http://www.bohemiancoding.com/sketch -->
    <title>developers</title>
    <desc>Created with Sketch.</desc>
    <defs>
        <ellipse id="path-1" cx="66" cy="66" rx="66" ry="66"></ellipse>
        <polygon id="path-3" points="0 67.0986093 0 0.7209 36.93 0.7209 36.93 67.0986093 7.06655871e-16 67.0986093"></polygon>
        <polygon id="path-5" points="1.08420217e-19 0.1471 1.08420217e-19 113 99.731 113 99.731 0.1471 0 0.1471"></polygon>
    </defs>
    <g id="Page-4" stroke="none" stroke-width="1" fill="none" fill-rule="evenodd">
        <g id="Home" transform="translate(-1150.000000, -1537.000000)">
            <g id="Group-2" transform="translate(1066.000000, 1537.000000)">
                <g id="developers" transform="translate(84.000000, 0.000000)">
                    <mask id="mask-2" fill="white">
                        <use xlink:href="#path-1"></use>
                    </mask>
                    <use id="Background" fill="#DFFAD9" xlink:href="#path-1"></use>
                    <g id="Illustration" mask="url(#mask-2)">
                        <g transform="translate(15.000000, 21.000000)">
                            <g id="Group-3" stroke-width="1" fill="none" transform="translate(0.000000, 75.756000)">
                                <mask id="mask-4" fill="white">
                                    <use xlink:href="#path-3"></use>
                                </mask>
                                <g id="Clip-2"></g>
                                <path d="M17.606,50.8789 C20.901,49.9089 28.542,47.0379 31.836,46.0669 L33.813,55.3409 C26.018,58.6339 15.637,64.8869 7.297,66.9529 C2.923,68.0369 -1.39,62.8999 0.425,57.2819 L12.665,19.4039 C16.887,7.1469 15.832,3.5699 26.031,0.7209 C28.947,2.9369 34.015,7.5919 36.93,9.8069 C30.127,23.1359 24.41,37.5509 17.606,50.8789" id="Fill-1" fill="#FFCEAA" mask="url(#mask-4)"></path>
                            </g>
                            <path d="M40.6807,60.716 L40.6807,70.903 C41.2457,78.472 44.1007,89.424 50.2857,95.696 C56.3787,89.457 59.3337,78.415 59.8947,70.903 L59.8947,60.716 L40.6807,60.716 Z" id="Fill-4" fill="#FFCEAA"></path>
                            <g id="Group-8" stroke-width="1" fill="none" transform="translate(0.000000, 70.756000)">
                                <mask id="mask-6" fill="white">
                                    <use xlink:href="#path-5"></use>
                                </mask>
                                <g id="Clip-7"></g>
                                <path d="M75.0571,38.7451 L72.7181,53.1311 L82.5881,57.6921 C81.0691,53.8771 77.2861,44.7791 75.0571,38.7451 M59.8951,0.1471 C64.9741,1.9421 70.0551,3.7391 75.1351,5.5341 C78.0521,6.5651 80.6101,7.7431 83.0501,9.7671 C87.3751,13.1411 87.5231,17.8741 90.2761,28.2191 L99.4921,67.8011 C100.8591,73.6721 96.1081,77.8161 91.8021,75.8581 C87.6131,73.9541 81.4221,70.4731 74.7871,66.7971 L76.3951,109.4121 C68.4061,117.3981 60.3081,109.5601 53.1341,109.5601 L50.8951,86.2521 L48.6491,109.3331 C40.1551,109.3331 35.4751,116.3771 24.3731,107.8351 L24.8431,40.7871 C22.5791,45.7761 20.2701,50.7361 17.7921,55.5911 L21.9151,54.1161 L24.4511,66.3891 C18.6671,68.4861 12.6101,70.6371 7.2971,71.9531 C2.9221,73.0371 -1.3899,67.9001 0.4251,62.2821 L12.6641,24.4041 C16.2011,14.5761 16.7301,9.8511 21.2381,7.3481 C22.2051,6.7661 23.5661,6.1971 25.4411,5.5341 C30.5211,3.7391 35.6001,1.9421 40.6811,0.1471 C41.2461,7.7161 44.1001,14.7561 50.2861,21.0281 C56.3781,14.7891 59.3331,7.6591 59.8951,0.1471" id="Fill-6" fill="#669933" mask="url(#mask-6)"></path>
                            </g>
                            <path d="M59.895,64.0675 C52.479,65.1435 45.687,66.7295 40.681,68.6295 L40.681,60.7155 L59.895,60.7155 L59.895,64.0675 Z" id="Fill-9" fill="#D3A17C"></path>
                            <path d="M50.2861,91.7843 C40.1671,90.9333 37.9451,81.2713 30.8821,83.8163 L40.6811,62.2543 C40.9601,74.8053 45.8201,82.1173 50.2861,91.7843" id="Fill-11" fill="#3D700B"></path>
                            <path d="M50.2861,91.7843 C60.4051,90.9333 62.6301,81.2713 69.6931,83.8163 L59.8951,62.2543 C59.6151,74.8053 54.7521,82.1173 50.2861,91.7843" id="Fill-13" fill="#3D700B"></path>
                            <path d="M75.4268,47.6901 C78.5318,47.6931 81.4718,44.3011 82.0148,40.4821 C82.4448,37.4681 82.0328,32.9021 78.1958,32.6521 C79.4578,13.1631 66.1918,12.9001 53.7798,12.0471 C41.6688,11.2141 29.1608,9.2041 27.1828,28.1911 C23.4368,28.9071 22.1898,31.7941 22.0908,35.4121 C21.9848,39.2731 24.3178,43.1121 27.3828,43.6261 C29.2498,57.5071 38.3878,61.8231 51.6698,62.9471 C64.9368,64.0691 71.2548,60.9921 75.4268,47.6901" id="Fill-15" fill="#FFCEAA"></path>
                            <path d="M51.4243,47.8898 C51.2743,48.0738 51.1823,48.2788 51.1633,48.4998 C51.0823,49.4588 52.3963,50.3538 54.0973,50.4978 C55.7983,50.6408 57.2433,49.9808 57.3243,49.0208 C57.3433,48.7998 57.2873,48.5818 57.1703,48.3758 C56.9733,49.1978 55.6803,49.7458 54.1713,49.6188 C52.6633,49.4908 51.4803,48.7328 51.4243,47.8898" id="Fill-17" fill="#D3A17C"></path>
                            <path d="M64.5503,39.0763 C66.1203,39.2083 67.2793,40.6733 67.1373,42.3473 C66.9953,44.0203 65.6083,45.2693 64.0373,45.1373 C62.4673,45.0043 61.3093,43.5393 61.4503,41.8663 C61.5923,40.1923 62.9803,38.9433 64.5503,39.0763" id="Fill-19" fill="#FFFFFF"></path>
                            <path d="M65.3086,40.6081 C66.3296,40.6941 67.0826,41.6471 66.9906,42.7341 C66.8986,43.8221 65.9966,44.6341 64.9756,44.5481 C63.9546,44.4611 63.2026,43.5091 63.2936,42.4211 C63.3126,42.2031 63.3636,41.9961 63.4416,41.8051 L65.0746,42.4271 L64.1546,40.9171 C64.4866,40.6901 64.8876,40.5731 65.3086,40.6081" id="Fill-21" fill="#000000"></path>
                            <path d="M45.7109,37.4821 C47.2819,37.6151 48.4399,39.0791 48.2979,40.7531 C48.1569,42.4271 46.7689,43.6761 45.1979,43.5431 C43.6279,43.4101 42.4699,41.9451 42.6109,40.2721 C42.7529,38.5981 44.1409,37.3501 45.7109,37.4821" id="Fill-23" fill="#FFFFFF"></path>
                            <path d="M46.4692,39.0143 C47.4902,39.1003 48.2432,40.0533 48.1512,41.1403 C48.0592,42.2283 47.1572,43.0403 46.1362,42.9533 C45.1152,42.8683 44.3632,41.9153 44.4542,40.8273 C44.4732,40.6093 44.5242,40.4023 44.6022,40.2113 L46.2352,40.8333 L45.3152,39.3233 C45.6472,39.0963 46.0482,38.9783 46.4692,39.0143" id="Fill-25" fill="#000000"></path>
                            <path d="M31.5298,35.7765 C31.8728,31.3005 31.3358,28.3595 27.1828,28.1915 C24.4578,7.0035 30.7708,-1.7795 55.2968,0.2965 C79.8218,2.3705 84.6318,11.1305 78.1848,32.6475 C74.0658,32.1195 72.8908,34.7715 72.4748,39.2405 C69.9718,35.9955 68.9648,32.1595 69.5418,19.9035 C66.7278,26.3425 61.1768,28.1205 56.7608,28.2985 C57.9338,26.0805 58.7738,23.7825 58.2878,21.1335 C55.4088,27.4715 50.5168,29.6975 45.2478,30.7345 C46.5818,28.2375 48.4488,25.0695 48.5588,20.1985 C45.3778,26.5725 40.8908,30.6265 36.1158,32.3345 C38.9048,28.4485 41.0118,22.0195 40.5238,17.0475 C38.9148,25.1355 35.7588,30.1855 31.5298,35.7765" id="Fill-27" fill="#000000"></path>
                            <path d="M68.9634,38.0202 C67.6954,35.7502 64.5394,34.3442 62.1994,34.5822 C58.4804,34.9582 59.6664,36.7452 62.6334,36.5332 C64.3704,36.4082 66.5684,37.0272 68.3734,38.6342 C69.2824,39.4452 69.6294,39.2132 68.9634,38.0202" id="Fill-29" fill="#000000"></path>
                            <path d="M41.5205,35.883 C43.2195,33.872 46.7425,33.05 49.1405,33.702 C52.9515,34.737 51.4175,36.287 48.3615,35.548 C46.5735,35.115 44.1805,35.332 42.0325,36.594 C40.9495,37.231 40.6275,36.94 41.5205,35.883" id="Fill-31" fill="#000000"></path>
                            <path d="M45.7163,52.4357 C45.7453,55.2967 48.8023,57.8177 52.8963,58.2137 C56.9903,58.6097 60.6743,56.7407 61.5083,53.9617 C59.0343,53.9967 56.3473,53.8877 53.5523,53.6177 C50.7583,53.3467 48.1133,52.9407 45.7163,52.4357" id="Fill-33" fill="#650909"></path>
                            <path d="M46.9219,52.6769 C48.2829,54.1449 50.5749,55.2259 53.2859,55.4889 C55.9969,55.7499 58.5309,55.1359 60.2689,53.9679 C58.1459,53.9559 55.8869,53.8429 53.5529,53.6169 C51.2189,53.3919 48.9899,53.0709 46.9219,52.6769" id="Fill-35" fill="#FFFFFF"></path>
                            <path d="M48.0068,56.424 C49.3558,56.188 51.1818,56.137 53.1658,56.329 C55.1488,56.521 56.9118,56.919 58.1568,57.405 C56.6648,58.083 54.8258,58.4 52.8968,58.214 C50.9658,58.027 49.2668,57.368 48.0068,56.424" id="Fill-37" fill="#8F3341"></path>
                        </g>
                    </g>
                </g>
            </g>
        </g>
    </g>
</svg>