<?xml version="1.0" encoding="UTF-8"?>
<svg width="64px" height="64px" viewBox="0 0 64 64" version="1.1" xmlns="http://www.w3.org/2000/svg" xmlns:xlink="http://www.w3.org/1999/xlink">
    <!-- Generator: Sketch 42 (36781) - http://www.bohemiancoding.com/sketch -->
    <title>icon-generate</title>
    <desc>Created with Sketch.</desc>
    <defs></defs>
    <g id="Page-4" stroke="none" stroke-width="1" fill="none" fill-rule="evenodd">
        <g id="Home" transform="translate(-332.000000, -930.000000)">
            <g id="Group-2" transform="translate(214.000000, 930.000000)">
                <g id="icon-generate" transform="translate(150.000000, 32.000000) scale(-1, 1) translate(-150.000000, -32.000000) translate(118.000000, 0.000000)">
                    <circle id="Background" fill="#EBEBFF" cx="32" cy="32" r="32"></circle>
                    <path d="M20.6594432,21.9974067 C19.8914468,21.2109617 18.6039334,21.1862338 17.7989124,21.9281568 L17.0195523,22.6464302 C16.2077212,23.3946296 16.2025586,24.6154795 17.0110048,25.3760817 L22.5893664,30.6243151 C23.3964768,31.3836606 23.3978126,32.6135463 22.5893664,33.3741485 L17.0110048,38.6223819 C16.2038943,39.3817274 16.2145313,40.6101104 17.0195523,41.3520334 L17.7989124,42.0703068 C18.6107435,42.8185061 19.9007227,42.7780032 20.6594432,42.001057 L29.0360638,33.4232164 C29.8040603,32.6367714 29.7947844,31.3521935 29.0360638,30.5752472 L20.6594432,21.9974067 Z" id="Arrow-right" fill="#9999FF" transform="translate(23.000000, 32.000000) scale(-1, 1) translate(-23.000000, -32.000000) "></path>
                    <path d="M38.6594432,21.9974067 C37.8914468,21.2109617 36.6039334,21.1862338 35.7989124,21.9281568 L35.0195523,22.6464302 C34.2077212,23.3946296 34.2025586,24.6154795 35.0110048,25.3760817 L40.5893664,30.6243151 C41.3964768,31.3836606 41.3978126,32.6135463 40.5893664,33.3741485 L35.0110048,38.6223819 C34.2038943,39.3817274 34.2145313,40.6101104 35.0195523,41.3520334 L35.7989124,42.0703068 C36.6107435,42.8185061 37.9007227,42.7780032 38.6594432,42.001057 L47.0360638,33.4232164 C47.8040603,32.6367714 47.7947844,31.3521935 47.0360638,30.5752472 L38.6594432,21.9974067 Z" id="Arrow-left" fill="#7373FF"></path>
                </g>
            </g>
        </g>
    </g>
</svg>