<?xml version="1.0" encoding="UTF-8"?>
<svg width="132px" height="132px" viewBox="0 0 132 132" version="1.1" xmlns="http://www.w3.org/2000/svg" xmlns:xlink="http://www.w3.org/1999/xlink">
    <!-- Generator: Sketch 42 (36781) - http://www.bohemiancoding.com/sketch -->
    <title>marketers</title>
    <desc>Created with Sketch.</desc>
    <defs>
        <ellipse id="path-1" cx="66" cy="66" rx="66" ry="66"></ellipse>
    </defs>
    <g id="Page-4" stroke="none" stroke-width="1" fill="none" fill-rule="evenodd">
        <g id="Home" transform="translate(-724.000000, -1537.000000)">
            <g id="Group-2" transform="translate(640.000000, 1537.000000)">
                <g id="marketers" transform="translate(84.000000, 0.000000)">
                    <mask id="mask-2" fill="white">
                        <use xlink:href="#path-1"></use>
                    </mask>
                    <use id="Background" fill="#FAE6D9" xlink:href="#path-1"></use>
                    <g id="Illustration" mask="url(#mask-2)">
                        <g transform="translate(35.000000, 19.000000)">
                            <path d="M20.3696,88.9919 L16.2166,123.0849 L15.2076,160.8219 L5.1716,160.5179 C5.8836,146.6559 5.6186,135.6599 6.5436,121.9979 C6.7256,119.3129 7.7066,101.7189 8.5526,86.9589 C8.8666,81.4739 8.2846,72.7979 16.1716,73.7129 C18.4026,73.9719 19.7306,76.7779 20.4316,79.3009 C21.1346,81.8239 21.1136,82.8839 20.3696,88.9919" id="Fill-1" fill="#AD7964"></path>
                            <g id="Group-5" stroke-width="1" fill="none" transform="translate(0.000000, 0.822000)">
                                <path d="M11.9282,8.3047 C25.5532,-8.4313 61.9832,1.3177 61.0792,31.6967 C60.3392,56.5497 45.9022,68.2147 30.5492,68.2187 C-7.1148,68.2247 -5.6778,9.0487 11.9282,8.3047" id="Fill-3" fill="#996633"></path>
                            </g>
                            <path d="M43.0991,125.8445 C43.9781,128.4685 45.6461,130.9615 46.3531,133.0895 L46.2981,133.0895 C45.5631,130.9905 43.9561,128.4115 43.0991,125.8445 M24.2301,68.9665 C24.1231,65.5925 24.0161,62.2185 23.9101,58.8435 L36.2891,58.8435 C36.1821,62.2185 36.0761,65.5925 35.9691,68.9665 C31.8341,72.4015 27.9361,72.1725 24.2301,68.9665" id="Fill-6" fill="#FFCEAA"></path>
                            <path d="M24.0977,64.7678 C28.7567,65.4738 32.9857,66.5748 36.0147,67.5028 L36.1497,63.2608 C34.0817,63.5568 32.1667,63.5918 30.6387,63.5918 C28.8567,63.5918 26.5307,63.5438 24.0447,63.0898 L24.0977,64.7678 Z" id="Fill-8" fill="#D3A17C"></path>
                            <path d="M50.8853,47.6828 C53.4943,47.4468 55.7243,44.1408 55.9103,40.6318 C56.0563,37.8618 55.3853,33.7478 52.1433,33.8168 C51.8183,16.0218 40.6503,16.8038 30.1593,16.9818 C19.9223,17.1558 9.2673,16.2908 8.9543,33.6838 C5.8573,34.6208 5.0153,37.3388 5.1893,40.6318 C5.3743,44.1448 7.6083,47.4528 10.2193,47.6828 C10.3613,48.3698 10.5183,49.0248 10.6903,49.6548 C13.8453,63.5948 25.1133,64.1038 30.6293,64.1038 C36.1493,64.1038 47.2493,63.5898 50.4183,49.6388 C50.5883,49.0138 50.7443,48.3638 50.8853,47.6828" id="Fill-10" fill="#FFCEAA"></path>
                            <path d="M39.0415,40.2624 C37.4805,40.2624 36.2145,41.3384 36.2145,42.6654 C36.2145,43.9924 37.4805,45.0684 39.0415,45.0684 C40.6035,45.0684 41.8685,43.9924 41.8685,42.6654 C41.8685,41.3384 40.6035,40.2624 39.0415,40.2624" id="Fill-12" fill="#FFFFFF"></path>
                            <path d="M38.1655,41.4182 C37.1495,41.4182 36.3275,42.1172 36.3275,42.9802 C36.3275,43.8432 37.1495,44.5422 38.1655,44.5422 C39.1805,44.5422 40.0025,43.8432 40.0025,42.9802 C40.0025,42.8072 39.9695,42.6412 39.9085,42.4852 L38.2445,42.8662 L39.2795,41.7382 C38.9705,41.5372 38.5835,41.4182 38.1655,41.4182" id="Fill-14" fill="#000000"></path>
                            <path d="M22.0542,40.2624 C20.4922,40.2624 19.2272,41.3384 19.2272,42.6654 C19.2272,43.9924 20.4922,45.0684 22.0542,45.0684 C23.6152,45.0684 24.8812,43.9924 24.8812,42.6654 C24.8812,41.3384 23.6152,40.2624 22.0542,40.2624" id="Fill-16" fill="#FFFFFF"></path>
                            <path d="M21.1772,41.4182 C20.1622,41.4182 19.3402,42.1172 19.3402,42.9802 C19.3402,43.8432 20.1622,44.5422 21.1772,44.5422 C22.1922,44.5422 23.0142,43.8432 23.0142,42.9802 C23.0142,42.8072 22.9812,42.6412 22.9202,42.4852 L21.2562,42.8662 L22.2912,41.7382 C21.9822,41.5372 21.5962,41.4182 21.1772,41.4182" id="Fill-18" fill="#000000"></path>
                            <path d="M27.9761,50.0017 C27.8561,50.1757 27.7901,50.3657 27.7901,50.5637 C27.7901,51.4227 29.0251,52.1197 30.5491,52.1197 C32.0731,52.1197 33.3091,51.4227 33.3091,50.5637 C33.3091,50.3657 33.2431,50.1757 33.1231,50.0017 C33.0101,50.7477 31.9011,51.3327 30.5491,51.3327 C29.1981,51.3327 28.0891,50.7477 27.9761,50.0017" id="Fill-20" fill="#D3A17C"></path>
                            <path d="M17.4912,50.0115 C18.7672,49.5455 20.2412,50.5925 20.7832,52.3495 C21.3252,54.1075 20.7312,55.9095 19.4552,56.3755 C18.1792,56.8425 16.7062,55.7955 16.1632,54.0375 C15.6212,52.2805 16.2162,50.4775 17.4912,50.0115 M43.6082,50.0115 C42.3322,49.5455 40.8582,50.5925 40.3162,52.3495 C39.7742,54.1075 40.3682,55.9095 41.6442,56.3765 C42.9202,56.8425 44.3932,55.7955 44.9352,54.0375 C45.4782,52.2805 44.8842,50.4775 43.6082,50.0115" id="Fill-22" fill="#F7BF9D"></path>
                            <path d="M50.9063,44.9548 C54.1433,39.9128 60.5863,10.9148 29.0053,10.9148 C10.7903,10.9148 4.2053,30.2228 8.7623,45.3778 C14.2493,41.9308 16.3223,34.8718 17.4223,27.8118 C35.2653,31.3048 47.3763,35.0518 50.9063,44.9548" id="Fill-24" fill="#996633"></path>
                            <path d="M17.8188,37.3518 C19.7378,36.2448 25.5208,37.0548 25.4518,39.4788 C24.0118,38.3998 20.9278,37.2108 17.8188,37.3518 M43.2768,37.3518 C41.3578,36.2448 35.5748,37.0548 35.6438,39.4788 C37.0838,38.3998 40.1678,37.2108 43.2768,37.3518" id="Fill-26" fill="#996633"></path>
                            <path d="M24.04,53.5481 C24.887,55.4541 28.267,58.7141 30.551,58.7141 C32.832,58.7141 36.211,55.4541 37.059,53.5481 C33.824,55.8501 27.432,55.9891 24.04,53.5481" id="Fill-28" fill="#B97C69"></path>
                            <path d="M35.3101,54.4768 C33.7051,56.9288 27.1211,56.8268 25.7931,54.4918 C28.6621,55.6328 32.5021,55.5818 35.3101,54.4768" id="Fill-30" fill="#FFFFFF"></path>
                            <path d="M14.8198,72.9221 C18.7068,71.3361 20.3438,70.5521 24.2298,68.9661 C27.9358,72.1721 31.8338,72.4011 35.9688,68.9661 C39.0988,70.2141 40.4608,70.9801 43.5908,72.2271 C54.0018,76.1561 50.6058,78.6391 49.2538,88.8001 C47.2198,104.0801 44.9708,111.9711 43.0158,125.5891 C43.8698,128.3061 46.0468,132.1831 46.7768,134.3801 C36.9658,139.1551 21.5858,138.7851 13.6498,133.8661 C14.3948,131.7231 16.9888,128.8971 17.8258,126.2321 C14.9288,112.3131 12.8348,102.5721 9.9378,88.6531 C8.1818,80.2151 8.4708,75.3611 14.8198,72.9221" id="Fill-32" fill="#97634E"></path>
                            <path d="M19.2925,71.0442 L23.9035,78.8972 L28.6635,72.0752 L32.4385,79.5502 L40.8135,71.0582 C39.2975,70.3882 38.0085,69.7792 35.9695,68.9662 C31.8345,72.4012 27.9365,72.1722 24.2295,68.9662 C22.1775,69.8042 20.7525,70.4182 19.2925,71.0442" id="Fill-34" fill="#FFFFFF"></path>
                            <path d="M43.3862,93.9494 L57.9712,120.4594 C57.6502,124.6364 56.0972,141.5014 55.5662,150.6834 L63.8462,151.2204 L67.7832,120.0074 C68.1322,117.9554 66.7282,114.1804 65.0222,110.3154 C63.9352,107.8534 59.0682,94.9254 53.2392,81.3404 C51.0732,76.2924 47.4042,71.1134 42.3822,76.6354 C37.6172,81.8734 41.4362,90.4044 43.3862,93.9494" id="Fill-36" fill="#AD7964"></path>
                            <path d="M27.6558,95.5168 C28.1688,95.5168 28.5838,96.1748 28.5838,96.9858 C28.5838,97.7968 28.1688,98.4548 27.6558,98.4548 C27.1428,98.4548 26.7278,97.7968 26.7278,96.9858 C26.7278,96.1748 27.1428,95.5168 27.6558,95.5168 M27.6558,109.4428 C28.1688,109.4428 28.5838,110.1008 28.5838,110.9128 C28.5838,111.7238 28.1688,112.3808 27.6558,112.3808 C27.1428,112.3808 26.7278,111.7238 26.7278,110.9128 C26.7278,110.1008 27.1428,109.4428 27.6558,109.4428 M27.6558,123.3698 C28.1688,123.3698 28.5838,124.0268 28.5838,124.8378 C28.5838,125.6498 28.1688,126.3078 27.6558,126.3078 C27.1428,126.3078 26.7278,125.6498 26.7278,124.8378 C26.7278,124.0268 27.1428,123.3698 27.6558,123.3698 M27.6558,81.5908 C28.1688,81.5908 28.5838,82.2478 28.5838,83.0598 C28.5838,83.8708 28.1688,84.5288 27.6558,84.5288 C27.1428,84.5288 26.7278,83.8708 26.7278,83.0598 C26.7278,82.2478 27.1428,81.5908 27.6558,81.5908" id="Fill-38" fill="#FFFFFF"></path>
                        </g>
                    </g>
                </g>
            </g>
        </g>
    </g>
</svg>